<svg width="163" height="62" viewBox="0 0 163 62" fill="none" xmlns="http://www.w3.org/2000/svg">
<path d="M0.48 3.672C0.778667 3.672 1.46133 3.672 2.528 3.672C3.59467 3.62933 4.78933 3.608 6.112 3.608C7.43467 3.608 8.75733 3.608 10.08 3.608C11.4027 3.56533 12.4907 3.544 13.344 3.544C18.6347 3.544 22.496 4.58933 24.928 6.68C27.36 8.728 28.576 11.6293 28.576 15.384C28.576 17.8587 27.9573 20.056 26.72 21.976C25.4827 23.896 23.456 25.2827 20.64 26.136C21.8347 26.8187 22.9013 27.7573 23.84 28.952C24.7787 30.1467 25.696 31.6187 26.592 33.368C27.488 35.0747 28.4053 37.08 29.344 39.384C30.2827 41.6453 31.3707 44.184 32.608 47H24.352C22.9013 43.6293 21.6213 40.7493 20.512 38.36C19.4453 35.9707 18.4 34.0293 17.376 32.536C16.352 31.0427 15.2427 29.9547 14.048 29.272C12.896 28.5893 11.5307 28.248 9.952 28.248H8.096V47H0.48V3.672ZM8.096 22.68H13.024C15.4133 22.68 17.248 22.1467 18.528 21.08C19.8507 20.0133 20.512 18.4347 20.512 16.344C20.512 15.4053 20.384 14.488 20.128 13.592C19.872 12.696 19.424 11.9067 18.784 11.224C18.1867 10.5413 17.3547 10.008 16.288 9.624C15.264 9.19733 13.9627 8.984 12.384 8.984H8.096V22.68ZM33.74 31.832C33.74 28.9733 34.124 26.456 34.892 24.28C35.7027 22.104 36.7907 20.2907 38.156 18.84C39.564 17.3467 41.2067 16.2373 43.084 15.512C44.9613 14.744 46.988 14.36 49.164 14.36C51.084 14.36 52.7053 14.5947 54.028 15.064C55.3933 15.5333 56.5027 16.1733 57.356 16.984C58.2093 17.7947 58.828 18.7547 59.212 19.864C59.6387 20.9733 59.852 22.168 59.852 23.448C59.852 24.984 59.4253 26.456 58.572 27.864C57.7187 29.2293 56.4813 30.4453 54.86 31.512C53.2813 32.536 51.3613 33.368 49.1 34.008C46.8387 34.6053 44.3 34.9253 41.484 34.968C41.612 35.9493 41.804 36.888 42.06 37.784C42.3587 38.6373 42.764 39.4053 43.276 40.088C43.8307 40.728 44.5347 41.24 45.388 41.624C46.2413 42.008 47.308 42.2 48.588 42.2C49.5267 42.2 50.5293 42.0933 51.596 41.88C52.6627 41.6667 53.644 41.4107 54.54 41.112C55.6067 40.7707 56.652 40.3867 57.676 39.96L59.596 44.504C58.4867 45.0587 57.292 45.5493 56.012 45.976C54.9027 46.36 53.6227 46.7013 52.172 47C50.7213 47.2987 49.1853 47.448 47.564 47.448C45.0893 47.448 42.9773 47.0853 41.228 46.36C39.4787 45.592 38.0493 44.5253 36.94 43.16C35.8307 41.7947 35.02 40.152 34.508 38.232C33.996 36.312 33.74 34.1787 33.74 31.832ZM48.588 19.352C47.18 19.352 46.0067 19.6933 45.068 20.376C44.172 21.016 43.4467 21.8693 42.892 22.936C42.3373 23.96 41.932 25.1333 41.676 26.456C41.4627 27.736 41.3347 29.0373 41.292 30.36C43.34 30.2747 45.068 30.0187 46.476 29.592C47.9267 29.1227 49.1 28.568 49.996 27.928C50.892 27.2453 51.532 26.52 51.916 25.752C52.3427 24.984 52.556 24.216 52.556 23.448C52.556 22.2107 52.1933 21.2293 51.468 20.504C50.7427 19.736 49.7827 19.352 48.588 19.352ZM82.742 7.64C82.614 7.512 82.2087 7.27733 81.526 6.936C80.886 6.59467 80.2673 6.424 79.67 6.424C79.286 6.424 78.8167 6.488 78.262 6.616C77.7073 6.70133 77.174 6.936 76.662 7.32C76.15 7.66133 75.702 8.17333 75.318 8.856C74.9767 9.53866 74.806 10.4347 74.806 11.544C74.806 12.0133 74.8273 12.5467 74.87 13.144C74.9553 13.7413 75.1047 14.4027 75.318 15.128H83.254L82.358 20.312H75.702V45.4C75.702 47.96 75.3607 50.0933 74.678 51.8C74.038 53.5493 73.1847 55 72.118 56.152C71.0513 57.3467 69.8567 58.328 68.534 59.096C67.254 59.9067 65.974 60.632 64.694 61.272L61.75 56.408C63.3287 55.5973 64.566 54.7227 65.462 53.784C66.358 52.888 67.0193 51.9707 67.446 51.032C67.9153 50.136 68.1927 49.2613 68.278 48.408C68.3633 47.5547 68.406 46.7867 68.406 46.104V20.312H62.646V15.128H68.214C68.0433 14.488 67.9153 13.8267 67.83 13.144C67.7873 12.4613 67.766 11.8213 67.766 11.224C67.766 9.51733 68.0647 8.00266 68.662 6.68C69.302 5.35733 70.134 4.26933 71.158 3.416C72.2247 2.56266 73.4407 1.92266 74.806 1.496C76.214 1.02666 77.6647 0.791996 79.158 0.791996C80.822 0.791996 82.1873 1.06933 83.254 1.624C84.3207 2.136 85.1953 2.75467 85.878 3.48L82.742 7.64ZM95.194 47.256C92.762 47.256 90.97 46.5947 89.818 45.272C88.666 43.9067 88.09 42.1787 88.09 40.088V1.88L95.386 0.535999V39.384C95.386 40.3653 95.578 41.048 95.962 41.432C96.346 41.816 96.9007 42.008 97.626 42.008C98.0527 42.008 98.458 41.9867 98.842 41.944C99.2687 41.9013 99.6527 41.8373 99.994 41.752C100.378 41.6667 100.719 41.5813 101.018 41.496L101.914 46.104C101.359 46.3173 100.741 46.5093 100.058 46.68C99.4607 46.8507 98.7567 46.9787 97.946 47.064C97.1353 47.192 96.218 47.256 95.194 47.256ZM104.178 31.832C104.178 28.9733 104.562 26.456 105.33 24.28C106.14 22.104 107.228 20.2907 108.594 18.84C110.002 17.3467 111.644 16.2373 113.522 15.512C115.399 14.744 117.426 14.36 119.602 14.36C121.522 14.36 123.143 14.5947 124.466 15.064C125.831 15.5333 126.94 16.1733 127.794 16.984C128.647 17.7947 129.266 18.7547 129.65 19.864C130.076 20.9733 130.29 22.168 130.29 23.448C130.29 24.984 129.863 26.456 129.01 27.864C128.156 29.2293 126.919 30.4453 125.298 31.512C123.719 32.536 121.799 33.368 119.538 34.008C117.276 34.6053 114.738 34.9253 111.922 34.968C112.05 35.9493 112.242 36.888 112.498 37.784C112.796 38.6373 113.202 39.4053 113.714 40.088C114.268 40.728 114.972 41.24 115.826 41.624C116.679 42.008 117.746 42.2 119.026 42.2C119.964 42.2 120.967 42.0933 122.034 41.88C123.1 41.6667 124.082 41.4107 124.978 41.112C126.044 40.7707 127.09 40.3867 128.114 39.96L130.034 44.504C128.924 45.0587 127.73 45.5493 126.45 45.976C125.34 46.36 124.06 46.7013 122.61 47C121.159 47.2987 119.623 47.448 118.002 47.448C115.527 47.448 113.415 47.0853 111.666 46.36C109.916 45.592 108.487 44.5253 107.378 43.16C106.268 41.7947 105.458 40.152 104.946 38.232C104.434 36.312 104.178 34.1787 104.178 31.832ZM119.026 19.352C117.618 19.352 116.444 19.6933 115.506 20.376C114.61 21.016 113.884 21.8693 113.33 22.936C112.775 23.96 112.37 25.1333 112.114 26.456C111.9 27.736 111.772 29.0373 111.73 30.36C113.778 30.2747 115.506 30.0187 116.914 29.592C118.364 29.1227 119.538 28.568 120.434 27.928C121.33 27.2453 121.97 26.52 122.354 25.752C122.78 24.984 122.994 24.216 122.994 23.448C122.994 22.2107 122.631 21.2293 121.906 20.504C121.18 19.736 120.22 19.352 119.026 19.352ZM131.867 47L142.556 30.104L133.212 15.128H141.66L145.692 21.72C145.948 22.1467 146.289 22.808 146.716 23.704C147.142 24.6 147.569 25.496 147.996 26.392C148.508 25.624 148.998 24.856 149.468 24.088C149.98 23.32 150.428 22.5733 150.812 21.848C151.836 19.9707 152.561 18.3707 152.988 17.048C153.457 15.7253 153.692 15.0853 153.692 15.128H161.244C161.244 15.0853 160.988 15.7893 160.476 17.24C159.964 18.6907 159.068 20.6107 157.788 23C157.062 24.28 156.23 25.56 155.292 26.84C154.353 28.0773 153.436 29.1867 152.54 30.168L162.908 47H154.588L149.852 38.744L147.356 34.072L144.86 38.808L140.06 47H131.867Z" fill="black"/>
</svg>
